<svg width="1638" height="585" viewBox="0 0 1638 585" fill="none" xmlns="http://www.w3.org/2000/svg">
<path d="M668.656 259.502C673.927 263.79 677.947 268.569 680.716 273.84C683.575 279.021 686.344 285.409 689.024 293.002C691.257 299.166 693.044 303.499 694.384 306H654.988C654.452 304.481 653.737 301.846 652.844 298.094C651.951 293.985 650.968 290.545 649.896 287.776C648.913 285.007 647.484 282.595 645.608 280.54C642.571 277.324 638.774 275.269 634.218 274.376C629.751 273.393 623.587 272.902 615.726 272.902V306H582.36C583.075 288.669 583.432 272.455 583.432 257.358C583.432 242.261 583.075 226.047 582.36 208.716H615.726V243.69C616.619 243.779 617.959 243.824 619.746 243.824C633.682 230.067 644.045 218.364 650.834 208.716H694.25L652.576 250.256C658.472 252.579 663.832 255.661 668.656 259.502ZM793.278 232.836L790.196 240.608C781.709 263.209 772.821 285.007 763.53 306C758.706 316.72 751.738 325.296 742.626 331.728C733.514 338.249 722.079 341.376 708.322 341.108C706.625 333.693 705.195 327.887 704.034 323.688C702.962 319.579 701.533 315.425 699.746 311.226C704.659 312.387 709.26 312.968 713.548 312.968C720.516 312.968 726.055 311.494 730.164 308.546C726.948 298.987 723.151 288.714 718.774 277.726C714.397 266.738 708.054 251.775 699.746 232.836H731.504C732.576 237.303 734.05 242.484 735.926 248.38C737.802 254.276 739.678 259.949 741.554 265.398C742.09 267.095 742.939 269.686 744.1 273.17C745.351 276.565 746.333 279.423 747.048 281.746L750.532 271.16C757.232 251.775 761.207 239 762.458 232.836H793.278ZM874.17 306.67H844.824V258.162H825.796L825.662 262.316C825.573 266.604 825.394 270.401 825.126 273.706C824.947 276.922 824.501 280.406 823.786 284.158C820.749 300.506 808.376 308.68 786.668 308.68V287.374C790.867 286.838 793.725 285.543 795.244 283.488C796.763 281.344 797.522 278.039 797.522 273.572V232.836L874.17 232.97V306.67ZM931.405 249.184C944.716 249.184 954.006 251.819 959.277 257.09C964.548 262.271 967.183 269.507 967.183 278.798C967.183 287.463 964.548 294.163 959.277 298.898C954.096 303.543 944.805 305.866 931.405 305.866H913.583V306H884.907C885.354 295.816 885.577 283.622 885.577 269.418C885.577 255.214 885.354 243.02 884.907 232.836H913.583V249.184H931.405ZM923.365 284.56C929.708 284.56 934.13 284.069 936.631 283.086C939.132 282.103 940.383 280.183 940.383 277.324C940.383 274.465 939.088 272.545 936.497 271.562C933.906 270.49 929.529 269.954 923.365 269.954L913.583 270.088V284.56H923.365ZM1057.85 258.028C1044.45 257.671 1034.71 257.447 1028.63 257.358V306H1000.23V257.358C994.241 257.447 984.548 257.671 971.148 258.028V232.836H1057.85V258.028ZM1151.44 232.836L1148.36 240.608C1139.87 263.209 1130.98 285.007 1121.69 306C1116.87 316.72 1109.9 325.296 1100.79 331.728C1091.68 338.249 1080.24 341.376 1066.48 341.108C1064.79 333.693 1063.36 327.887 1062.2 323.688C1061.12 319.579 1059.69 315.425 1057.91 311.226C1062.82 312.387 1067.42 312.968 1071.71 312.968C1078.68 312.968 1084.22 311.494 1088.33 308.546C1085.11 298.987 1081.31 288.714 1076.94 277.726C1072.56 266.738 1066.22 251.775 1057.91 232.836H1089.67C1090.74 237.303 1092.21 242.484 1094.09 248.38C1095.96 254.276 1097.84 259.949 1099.72 265.398C1100.25 267.095 1101.1 269.686 1102.26 273.17C1103.51 276.565 1104.5 279.423 1105.21 281.746L1108.69 271.16C1115.39 251.775 1119.37 239 1120.62 232.836H1151.44ZM1215.39 231.496C1221.2 231.496 1226.42 233.149 1231.07 236.454C1235.71 239.759 1239.33 244.271 1241.92 249.988C1244.51 255.616 1245.81 261.825 1245.81 268.614C1245.81 275.314 1244.51 281.657 1241.92 287.642C1239.33 293.538 1235.67 298.317 1230.93 301.98C1226.29 305.553 1220.97 307.34 1214.99 307.34C1208.02 307.34 1202.04 305.911 1197.03 303.052C1192.12 300.104 1188.46 295.593 1186.04 289.518C1186.04 294.61 1186.22 302.784 1186.58 314.04C1186.94 324.939 1187.12 332.621 1187.12 337.088H1156.83C1157.37 320.472 1157.64 303.097 1157.64 284.962C1157.64 266.827 1157.37 249.452 1156.83 232.836H1182.56L1186.45 249.586C1188.95 243.333 1192.7 238.777 1197.7 235.918C1202.71 232.97 1208.6 231.496 1215.39 231.496ZM1201.05 283.22C1205.07 283.22 1208.42 281.969 1211.1 279.468C1213.87 276.877 1215.26 273.527 1215.26 269.418C1215.26 264.862 1214.01 261.155 1211.5 258.296C1209 255.437 1205.61 254.008 1201.32 254.008C1196.41 254.008 1192.7 255.214 1190.2 257.626C1187.7 259.949 1186.45 263.879 1186.45 269.418C1186.45 272.545 1187.25 275.18 1188.86 277.324C1190.47 279.379 1192.39 280.897 1194.62 281.88C1196.85 282.773 1199 283.22 1201.05 283.22ZM1339.66 232.836C1339.21 246.415 1338.99 258.609 1338.99 269.418C1338.99 280.227 1339.21 292.421 1339.66 306H1310.58V281.612H1284.32V306H1255.24C1255.69 295.816 1255.91 283.622 1255.91 269.418C1255.91 255.214 1255.69 243.02 1255.24 232.836H1284.32V257.224H1310.58V232.836H1339.66ZM1396.87 249.184C1410.18 249.184 1419.47 251.819 1424.74 257.09C1430.01 262.271 1432.65 269.507 1432.65 278.798C1432.65 287.463 1430.01 294.163 1424.74 298.898C1419.56 303.543 1410.27 305.866 1396.87 305.866H1379.05V306H1350.37C1350.82 295.816 1351.04 283.622 1351.04 269.418C1351.04 255.214 1350.82 243.02 1350.37 232.836H1379.05V249.184H1396.87ZM1467.22 232.836C1466.78 242.841 1466.55 254.991 1466.55 269.284C1466.55 283.488 1466.78 295.637 1467.22 305.732H1437.88C1438.14 287.776 1438.28 272.679 1438.28 260.44C1438.28 248.201 1438.14 239 1437.88 232.836H1467.22ZM1388.83 284.56C1395.17 284.56 1399.6 284.069 1402.1 283.086C1404.6 282.103 1405.85 280.183 1405.85 277.324C1405.85 274.465 1404.55 272.545 1401.96 271.562C1399.37 270.49 1395 269.954 1388.83 269.954L1379.05 270.088V284.56H1388.83ZM1561.85 232.836C1561.4 245.789 1561.18 257.492 1561.18 267.944C1561.18 278.217 1561.4 289.92 1561.85 303.052H1534.38L1535.85 256.688L1515.35 303.052H1477.96C1478.5 291.26 1478.77 279.557 1478.77 267.944C1478.77 256.152 1478.5 244.449 1477.96 232.836H1504.36L1503.02 280.406L1523.52 232.836H1561.85ZM1518.56 229.62C1514.36 229.62 1510.48 228.682 1506.91 226.806C1503.42 224.93 1500.65 222.25 1498.6 218.766C1496.54 215.282 1495.52 211.217 1495.52 206.572H1508.78C1508.78 210.056 1509.67 212.647 1511.46 214.344C1513.34 215.952 1515.7 216.756 1518.56 216.756C1521.42 216.756 1523.74 215.952 1525.53 214.344C1527.41 212.647 1528.35 210.056 1528.35 206.572H1541.61C1541.61 211.217 1540.58 215.282 1538.53 218.766C1536.47 222.25 1533.66 224.93 1530.09 226.806C1526.6 228.682 1522.76 229.62 1518.56 229.62ZM610.902 456H582.36C582.807 445.727 583.03 433.533 583.03 419.418C583.03 405.214 582.807 393.02 582.36 382.836H657.668C657.579 385.963 657.534 392.216 657.534 401.596V408.832H610.902V456ZM706.117 457.34C690.841 457.34 679.585 453.856 672.349 446.888C665.203 439.831 661.629 430.585 661.629 419.15C661.629 407.983 665.203 398.916 672.349 391.948C679.585 384.98 690.841 381.496 706.117 381.496C716.391 381.496 724.967 383.193 731.845 386.588C738.813 389.893 743.95 394.405 747.255 400.122C750.561 405.75 752.213 412.093 752.213 419.15C752.213 430.674 748.372 439.92 740.689 446.888C733.096 453.856 721.572 457.34 706.117 457.34ZM706.653 434.56C712.46 434.56 716.793 433.175 719.651 430.406C722.51 427.637 723.939 423.929 723.939 419.284C723.939 414.907 722.51 411.333 719.651 408.564C716.793 405.705 712.46 404.276 706.653 404.276C700.847 404.276 696.603 405.661 693.923 408.43C691.243 411.199 689.903 414.817 689.903 419.284C689.903 423.929 691.243 427.637 693.923 430.406C696.603 433.175 700.847 434.56 706.653 434.56ZM820.195 381.496C826.002 381.496 831.228 383.149 835.873 386.454C840.519 389.759 844.137 394.271 846.727 399.988C849.318 405.616 850.613 411.825 850.613 418.614C850.613 425.314 849.318 431.657 846.727 437.642C844.137 443.538 840.474 448.317 835.739 451.98C831.094 455.553 825.779 457.34 819.793 457.34C812.825 457.34 806.84 455.911 801.837 453.052C796.924 450.104 793.261 445.593 790.849 439.518C790.849 444.61 791.028 452.784 791.385 464.04C791.743 474.939 791.921 482.621 791.921 487.088H761.637C762.173 470.472 762.441 453.097 762.441 434.962C762.441 416.827 762.173 399.452 761.637 382.836H787.365L791.251 399.586C793.753 393.333 797.505 388.777 802.507 385.918C807.51 382.97 813.406 381.496 820.195 381.496ZM805.857 433.22C809.877 433.22 813.227 431.969 815.907 429.468C818.677 426.877 820.061 423.527 820.061 419.418C820.061 414.862 818.811 411.155 816.309 408.296C813.808 405.437 810.413 404.008 806.125 404.008C801.212 404.008 797.505 405.214 795.003 407.626C792.502 409.949 791.251 413.879 791.251 419.418C791.251 422.545 792.055 425.18 793.663 427.324C795.271 429.379 797.192 430.897 799.425 431.88C801.659 432.773 803.803 433.22 805.857 433.22ZM903.192 457.34C887.916 457.34 876.66 453.856 869.424 446.888C862.277 439.831 858.704 430.585 858.704 419.15C858.704 407.983 862.277 398.916 869.424 391.948C876.66 384.98 887.916 381.496 903.192 381.496C913.465 381.496 922.041 383.193 928.92 386.588C935.888 389.893 941.024 394.405 944.33 400.122C947.635 405.75 949.288 412.093 949.288 419.15C949.288 430.674 945.446 439.92 937.764 446.888C930.17 453.856 918.646 457.34 903.192 457.34ZM903.728 434.56C909.534 434.56 913.867 433.175 916.726 430.406C919.584 427.637 921.014 423.929 921.014 419.284C921.014 414.907 919.584 411.333 916.726 408.564C913.867 405.705 909.534 404.276 903.728 404.276C897.921 404.276 893.678 405.661 890.998 408.43C888.318 411.199 886.978 414.817 886.978 419.284C886.978 423.929 888.318 427.637 890.998 430.406C893.678 433.175 897.921 434.56 903.728 434.56ZM1042.33 436.972H1046.35V473.018H1021.02V458.412H978.678V473.286H953.352V436.972H957.774C960.811 436.525 963.089 435.409 964.608 433.622C966.216 431.835 967.466 428.887 968.36 424.778C968.985 421.562 969.298 413.879 969.298 401.73V382.836L1042.33 382.97V436.972ZM992.078 432.55C991.899 433.533 991.542 435.007 991.006 436.972H1016.73V405.482H993.954V409.502C993.864 414.683 993.73 418.793 993.552 421.83C993.373 424.778 992.882 428.351 992.078 432.55ZM1100.27 457.34C1084.99 457.34 1073.73 453.856 1066.5 446.888C1059.35 439.831 1055.78 430.585 1055.78 419.15C1055.78 407.983 1059.35 398.916 1066.5 391.948C1073.73 384.98 1084.99 381.496 1100.27 381.496C1110.54 381.496 1119.12 383.193 1125.99 386.588C1132.96 389.893 1138.1 394.405 1141.4 400.122C1144.71 405.75 1146.36 412.093 1146.36 419.15C1146.36 430.674 1142.52 439.92 1134.84 446.888C1127.24 453.856 1115.72 457.34 1100.27 457.34ZM1100.8 434.56C1106.61 434.56 1110.94 433.175 1113.8 430.406C1116.66 427.637 1118.09 423.929 1118.09 419.284C1118.09 414.907 1116.66 411.333 1113.8 408.564C1110.94 405.705 1106.61 404.276 1100.8 404.276C1095 404.276 1090.75 405.661 1088.07 408.43C1085.39 411.199 1084.05 414.817 1084.05 419.284C1084.05 423.929 1085.39 427.637 1088.07 430.406C1090.75 433.175 1095 434.56 1100.8 434.56ZM1224.26 421.026C1228.28 424.242 1231.36 427.86 1233.51 431.88C1235.65 435.9 1237.66 440.724 1239.54 446.352C1241.41 451.265 1242.75 454.481 1243.56 456H1211.26C1210.99 455.375 1210.46 453.409 1209.65 450.104C1208.94 446.799 1208.22 444.163 1207.51 442.198C1206.8 440.143 1205.72 438.357 1204.29 436.838C1202.06 434.426 1199.56 432.863 1196.79 432.148C1194.02 431.433 1189.91 431.076 1184.46 431.076V456H1155.79C1156.23 445.816 1156.46 433.622 1156.46 419.418C1156.46 405.214 1156.23 393.02 1155.79 382.836H1184.46V409.1H1185C1195.63 398.469 1203.36 389.715 1208.18 382.836H1243.56L1212.2 414.058C1216.85 416.023 1220.87 418.346 1224.26 421.026Z" fill="white"/>
<ellipse cx="313.965" cy="351.477" rx="153.527" ry="157.373" fill="#FFA500"/>
<path d="M169.553 478.718C141.827 318.623 40.5126 295.915 107.483 257.983C227.51 190 232.101 268.537 227.509 343.487L351.651 80L362.741 343.487L467.563 281.416L427.495 478.718C383.849 485.635 294.338 495.318 285.466 478.718C276.593 462.118 275.389 413.428 271.692 379.441L319.989 401.443" stroke="white" stroke-width="33.9867"/>
</svg>
