<svg width="980" height="282" viewBox="0 0 980 282" fill="none" xmlns="http://www.w3.org/2000/svg">
<path d="M86.656 53.502C91.9267 57.79 95.9467 62.5693 98.716 67.84C101.575 73.0213 104.344 79.4087 107.024 87.002C109.257 93.166 111.044 97.4987 112.384 100H72.988C72.452 98.4813 71.7373 95.846 70.844 92.094C69.9507 87.9847 68.968 84.5453 67.896 81.776C66.9133 79.0067 65.484 76.5947 63.608 74.54C60.5707 71.324 56.774 69.2693 52.218 68.376C47.7513 67.3933 41.5873 66.902 33.726 66.902V100H0.36C1.07467 82.6693 1.432 66.4553 1.432 51.358C1.432 36.2607 1.07467 20.0467 0.36 2.716H33.726V37.69C34.6193 37.7793 35.9593 37.824 37.746 37.824C51.682 24.0667 62.0447 12.364 68.834 2.716H112.25L70.576 44.256C76.472 46.5787 81.832 49.6607 86.656 53.502ZM211.278 26.836L208.196 34.608C199.709 57.2093 190.821 79.0067 181.53 100C176.706 110.72 169.738 119.296 160.626 125.728C151.514 132.249 140.079 135.376 126.322 135.108C124.625 127.693 123.195 121.887 122.034 117.688C120.962 113.579 119.533 109.425 117.746 105.226C122.659 106.387 127.26 106.968 131.548 106.968C138.516 106.968 144.055 105.494 148.164 102.546C144.948 92.9873 141.151 82.714 136.774 71.726C132.397 60.738 126.054 45.7747 117.746 26.836H149.504C150.576 31.3027 152.05 36.484 153.926 42.38C155.802 48.276 157.678 53.9487 159.554 59.398C160.09 61.0953 160.939 63.686 162.1 67.17C163.351 70.5647 164.333 73.4233 165.048 75.746L168.532 65.16C175.232 45.7747 179.207 33 180.458 26.836H211.278ZM292.17 100.67H262.824V52.162H243.796L243.662 56.316C243.573 60.604 243.394 64.4007 243.126 67.706C242.947 70.922 242.501 74.406 241.786 78.158C238.749 94.506 226.376 102.68 204.668 102.68V81.374C208.867 80.838 211.725 79.5427 213.244 77.488C214.763 75.344 215.522 72.0387 215.522 67.572V26.836L292.17 26.97V100.67ZM349.405 43.184C362.716 43.184 372.006 45.8193 377.277 51.09C382.548 56.2713 385.183 63.5073 385.183 72.798C385.183 81.4633 382.548 88.1633 377.277 92.898C372.096 97.5433 362.805 99.866 349.405 99.866H331.583V100H302.907C303.354 89.816 303.577 77.622 303.577 63.418C303.577 49.214 303.354 37.02 302.907 26.836H331.583V43.184H349.405ZM341.365 78.56C347.708 78.56 352.13 78.0687 354.631 77.086C357.132 76.1033 358.383 74.1827 358.383 71.324C358.383 68.4653 357.088 66.5447 354.497 65.562C351.906 64.49 347.529 63.954 341.365 63.954L331.583 64.088V78.56H341.365ZM475.846 52.028C462.446 51.6707 452.709 51.4473 446.634 51.358V100H418.226V51.358C412.241 51.4473 402.548 51.6707 389.148 52.028V26.836H475.846V52.028ZM569.44 26.836L566.358 34.608C557.872 57.2093 548.983 79.0067 539.692 100C534.868 110.72 527.9 119.296 518.788 125.728C509.676 132.249 498.242 135.376 484.484 135.108C482.787 127.693 481.358 121.887 480.196 117.688C479.124 113.579 477.695 109.425 475.908 105.226C480.822 106.387 485.422 106.968 489.71 106.968C496.678 106.968 502.217 105.494 506.326 102.546C503.11 92.9873 499.314 82.714 494.936 71.726C490.559 60.738 484.216 45.7747 475.908 26.836H507.666C508.738 31.3027 510.212 36.484 512.088 42.38C513.964 48.276 515.84 53.9487 517.716 59.398C518.252 61.0953 519.101 63.686 520.262 67.17C521.513 70.5647 522.496 73.4233 523.21 75.746L526.694 65.16C533.394 45.7747 537.37 33 538.62 26.836H569.44ZM633.391 25.496C639.197 25.496 644.423 27.1487 649.069 30.454C653.714 33.7593 657.332 38.2707 659.923 43.988C662.513 49.616 663.809 55.8247 663.809 62.614C663.809 69.314 662.513 75.6567 659.923 81.642C657.332 87.538 653.669 92.3173 648.935 95.98C644.289 99.5533 638.974 101.34 632.989 101.34C626.021 101.34 620.035 99.9107 615.033 97.052C610.119 94.104 606.457 89.5927 604.045 83.518C604.045 88.61 604.223 96.784 604.581 108.04C604.938 118.939 605.117 126.621 605.117 131.088H574.833C575.369 114.472 575.637 97.0967 575.637 78.962C575.637 60.8273 575.369 43.452 574.833 26.836H600.561L604.447 43.586C606.948 37.3327 610.7 32.7767 615.703 29.918C620.705 26.97 626.601 25.496 633.391 25.496ZM619.053 77.22C623.073 77.22 626.423 75.9693 629.103 73.468C631.872 70.8773 633.257 67.5273 633.257 63.418C633.257 58.862 632.006 55.1547 629.505 52.296C627.003 49.4373 623.609 48.008 619.321 48.008C614.407 48.008 610.7 49.214 608.199 51.626C605.697 53.9487 604.447 57.8793 604.447 63.418C604.447 66.5447 605.251 69.18 606.859 71.324C608.467 73.3787 610.387 74.8973 612.621 75.88C614.854 76.7733 616.998 77.22 619.053 77.22ZM757.659 26.836C757.212 40.4147 756.989 52.6087 756.989 63.418C756.989 74.2273 757.212 86.4213 757.659 100H728.581V75.612H702.317V100H673.239C673.686 89.816 673.909 77.622 673.909 63.418C673.909 49.214 673.686 37.02 673.239 26.836H702.317V51.224H728.581V26.836H757.659ZM814.872 43.184C828.182 43.184 837.473 45.8193 842.744 51.09C848.014 56.2713 850.65 63.5073 850.65 72.798C850.65 81.4633 848.014 88.1633 842.744 92.898C837.562 97.5433 828.272 99.866 814.872 99.866H797.05V100H768.374C768.82 89.816 769.044 77.622 769.044 63.418C769.044 49.214 768.82 37.02 768.374 26.836H797.05V43.184H814.872ZM885.222 26.836C884.775 36.8413 884.552 48.9907 884.552 63.284C884.552 77.488 884.775 89.6373 885.222 99.732H855.876C856.144 81.776 856.278 66.6787 856.278 54.44C856.278 42.2013 856.144 33 855.876 26.836H885.222ZM806.832 78.56C813.174 78.56 817.596 78.0687 820.098 77.086C822.599 76.1033 823.85 74.1827 823.85 71.324C823.85 68.4653 822.554 66.5447 819.964 65.562C817.373 64.49 812.996 63.954 806.832 63.954L797.05 64.088V78.56H806.832ZM979.846 26.836C979.399 39.7893 979.176 51.492 979.176 61.944C979.176 72.2173 979.399 83.92 979.846 97.052H952.376L953.85 50.688L933.348 97.052H895.962C896.498 85.26 896.766 73.5573 896.766 61.944C896.766 50.152 896.498 38.4493 895.962 26.836H922.36L921.02 74.406L941.522 26.836H979.846ZM936.564 23.62C932.365 23.62 928.479 22.682 924.906 20.806C921.422 18.93 918.652 16.25 916.598 12.766C914.543 9.28199 913.516 5.21733 913.516 0.571994H926.782C926.782 4.056 927.675 6.64667 929.462 8.344C931.338 9.952 933.705 10.756 936.564 10.756C939.422 10.756 941.745 9.952 943.532 8.344C945.408 6.64667 946.346 4.056 946.346 0.571994H959.612C959.612 5.21733 958.584 9.28199 956.53 12.766C954.475 16.25 951.661 18.93 948.088 20.806C944.604 22.682 940.762 23.62 936.564 23.62ZM28.902 250H0.36C0.806667 239.727 1.03 227.533 1.03 213.418C1.03 199.214 0.806667 187.02 0.36 176.836H75.668C75.5787 179.963 75.534 186.216 75.534 195.596V202.832H28.902V250ZM124.117 251.34C108.841 251.34 97.5854 247.856 90.3494 240.888C83.2027 233.831 79.6294 224.585 79.6294 213.15C79.6294 201.983 83.2027 192.916 90.3494 185.948C97.5854 178.98 108.841 175.496 124.117 175.496C134.391 175.496 142.967 177.193 149.845 180.588C156.813 183.893 161.95 188.405 165.255 194.122C168.561 199.75 170.213 206.093 170.213 213.15C170.213 224.674 166.372 233.92 158.689 240.888C151.096 247.856 139.572 251.34 124.117 251.34ZM124.653 228.56C130.46 228.56 134.793 227.175 137.651 224.406C140.51 221.637 141.939 217.929 141.939 213.284C141.939 208.907 140.51 205.333 137.651 202.564C134.793 199.705 130.46 198.276 124.653 198.276C118.847 198.276 114.603 199.661 111.923 202.43C109.243 205.199 107.903 208.817 107.903 213.284C107.903 217.929 109.243 221.637 111.923 224.406C114.603 227.175 118.847 228.56 124.653 228.56ZM238.195 175.496C244.002 175.496 249.228 177.149 253.873 180.454C258.519 183.759 262.137 188.271 264.727 193.988C267.318 199.616 268.613 205.825 268.613 212.614C268.613 219.314 267.318 225.657 264.727 231.642C262.137 237.538 258.474 242.317 253.739 245.98C249.094 249.553 243.779 251.34 237.793 251.34C230.825 251.34 224.84 249.911 219.837 247.052C214.924 244.104 211.261 239.593 208.849 233.518C208.849 238.61 209.028 246.784 209.385 258.04C209.743 268.939 209.921 276.621 209.921 281.088H179.637C180.173 264.472 180.441 247.097 180.441 228.962C180.441 210.827 180.173 193.452 179.637 176.836H205.365L209.251 193.586C211.753 187.333 215.505 182.777 220.507 179.918C225.51 176.97 231.406 175.496 238.195 175.496ZM223.857 227.22C227.877 227.22 231.227 225.969 233.907 223.468C236.677 220.877 238.061 217.527 238.061 213.418C238.061 208.862 236.811 205.155 234.309 202.296C231.808 199.437 228.413 198.008 224.125 198.008C219.212 198.008 215.505 199.214 213.003 201.626C210.502 203.949 209.251 207.879 209.251 213.418C209.251 216.545 210.055 219.18 211.663 221.324C213.271 223.379 215.192 224.897 217.425 225.88C219.659 226.773 221.803 227.22 223.857 227.22ZM321.192 251.34C305.916 251.34 294.66 247.856 287.424 240.888C280.277 233.831 276.704 224.585 276.704 213.15C276.704 201.983 280.277 192.916 287.424 185.948C294.66 178.98 305.916 175.496 321.192 175.496C331.465 175.496 340.041 177.193 346.92 180.588C353.888 183.893 359.024 188.405 362.33 194.122C365.635 199.75 367.288 206.093 367.288 213.15C367.288 224.674 363.446 233.92 355.764 240.888C348.17 247.856 336.646 251.34 321.192 251.34ZM321.728 228.56C327.534 228.56 331.867 227.175 334.726 224.406C337.584 221.637 339.014 217.929 339.014 213.284C339.014 208.907 337.584 205.333 334.726 202.564C331.867 199.705 327.534 198.276 321.728 198.276C315.921 198.276 311.678 199.661 308.998 202.43C306.318 205.199 304.978 208.817 304.978 213.284C304.978 217.929 306.318 221.637 308.998 224.406C311.678 227.175 315.921 228.56 321.728 228.56ZM460.328 230.972H464.348V267.018H439.022V252.412H396.678V267.286H371.352V230.972H375.774C378.811 230.525 381.089 229.409 382.608 227.622C384.216 225.835 385.466 222.887 386.36 218.778C386.985 215.562 387.298 207.879 387.298 195.73V176.836L460.328 176.97V230.972ZM410.078 226.55C409.899 227.533 409.542 229.007 409.006 230.972H434.734V199.482H411.954V203.502C411.864 208.683 411.73 212.793 411.552 215.83C411.373 218.778 410.882 222.351 410.078 226.55ZM518.266 251.34C502.99 251.34 491.734 247.856 484.498 240.888C477.351 233.831 473.778 224.585 473.778 213.15C473.778 201.983 477.351 192.916 484.498 185.948C491.734 178.98 502.99 175.496 518.266 175.496C528.539 175.496 537.115 177.193 543.994 180.588C550.962 183.893 556.098 188.405 559.404 194.122C562.709 199.75 564.362 206.093 564.362 213.15C564.362 224.674 560.52 233.92 552.838 240.888C545.244 247.856 533.72 251.34 518.266 251.34ZM518.802 228.56C524.608 228.56 528.941 227.175 531.8 224.406C534.658 221.637 536.088 217.929 536.088 213.284C536.088 208.907 534.658 205.333 531.8 202.564C528.941 199.705 524.608 198.276 518.802 198.276C512.995 198.276 508.752 199.661 506.072 202.43C503.392 205.199 502.052 208.817 502.052 213.284C502.052 217.929 503.392 221.637 506.072 224.406C508.752 227.175 512.995 228.56 518.802 228.56ZM642.26 215.026C646.28 218.242 649.362 221.86 651.506 225.88C653.65 229.9 655.66 234.724 657.536 240.352C659.412 245.265 660.752 248.481 661.556 250H629.262C628.994 249.375 628.458 247.409 627.654 244.104C626.939 240.799 626.224 238.163 625.51 236.198C624.795 234.143 623.723 232.357 622.294 230.838C620.06 228.426 617.559 226.863 614.79 226.148C612.02 225.433 607.911 225.076 602.462 225.076V250H573.786C574.232 239.816 574.456 227.622 574.456 213.418C574.456 199.214 574.232 187.02 573.786 176.836H602.462V203.1H602.998C613.628 192.469 621.356 183.715 626.18 176.836H661.556L630.2 208.058C634.845 210.023 638.865 212.346 642.26 215.026Z" fill="white"/>
</svg>
